<?xml version="1.0" encoding="iso-8859-1"?><svg viewBox="0 0 512 512" xmlns="http://www.w3.org/2000/svg" xmlns:xlink="http://www.w3.org/1999/xlink"><style>:root>svg{display:none}:root>svg:target{display:block}</style><svg viewBox="0 0 496.941 496.941" id="contract" xmlns="http://www.w3.org/2000/svg"><g fill="#ff9300"><path d="M475.299 106.918l-12.047-3.765c-3.012-.753-6.024-1.506-9.788-1.506-13.553 0-25.6 9.035-30.118 21.835l-6.776 20.329V128c0-2.259-1.506-4.518-3.012-6.024L290.076 2.259C288.57.753 286.311 0 284.805 0H43.111c-4.518 0-7.529 3.012-7.529 7.529V30.87H7.723c-4.518 0-7.529 3.012-7.529 7.529v451.012c0 4.518 3.012 7.529 7.529 7.529h365.929c4.518 0 7.529-3.012 7.529-7.529V466.07h27.859c4.518 0 7.529-3.012 7.529-7.529V356.894l21.082-28.612.753-2.259 56.471-179.953c6.024-16.564-3.011-33.882-19.576-39.152zM292.334 25.6l98.635 94.871h-98.635V25.6zm73.789 456.282H15.252V45.929h20.329v412.612c0 4.518 3.012 7.529 7.529 7.529h323.012v15.812zm36.141-30.87H50.64V15.059h226.635V128c0 4.518 3.012 7.529 7.529 7.529h117.459V192l-35.388 111.435v2.259l1.506 95.624c0 3.012 2.259 6.024 5.271 6.776 3.012.753 6.776 0 8.282-3.012l20.329-27.106v73.036zm-19.577-73.036l-1.506-62.494 37.647 12.047-36.141 50.447zm98.636-236.423l-54.212 172.424-43.671-14.306L437.652 128c3.012-8.282 12.047-13.553 20.329-10.541l12.047 3.765c9.036 2.258 14.306 12.047 11.295 20.329z"/><path d="M101.84 135.529h108.424c4.518 0 7.529-3.012 7.529-7.529V51.2c0-4.518-3.012-7.529-7.529-7.529H101.84c-4.518 0-7.529 3.012-7.529 7.529V128c0 3.765 3.765 7.529 7.529 7.529zm7.53-76.8h93.365v61.741H109.37V58.729zM86.782 206.306h228.894c4.518 0 7.529-3.012 7.529-7.529 0-4.518-3.012-7.529-7.529-7.529H86.782c-4.518 0-7.529 3.012-7.529 7.529-.001 4.517 3.011 7.529 7.529 7.529zM86.782 261.271h228.894c4.518 0 7.529-3.012 7.529-7.529s-3.012-7.529-7.529-7.529H86.782c-4.518 0-7.529 3.012-7.529 7.529s3.011 7.529 7.529 7.529zM86.782 316.235h228.894c4.518 0 7.529-3.012 7.529-7.529s-3.012-7.529-7.529-7.529H86.782c-4.518 0-7.529 3.012-7.529 7.529s3.011 7.529 7.529 7.529zM322.452 363.671c0-4.518-3.012-7.529-7.529-7.529H86.782c-4.518 0-7.529 3.012-7.529 7.529s3.012 7.529 7.529 7.529h228.894c3.764 0 6.776-3.765 6.776-7.529zM347.299 411.106H233.605c-4.518 0-7.529 3.012-7.529 7.529s3.012 7.529 7.529 7.529h112.941c4.518 0 7.529-3.012 7.529-7.529s-3.011-7.529-6.776-7.529z"/></g></svg><svg version="1.1" id="favicon" x="0" y="0" viewBox="0 0 36 36" xml:space="preserve" xmlns="http://www.w3.org/2000/svg"><style>.bst0{fill:#f3f3f1}.bst1{fill:#eca442}.bst2{fill:#d5dbe1}.bst3{fill:#976929}</style><path class="bst0" d="M29 35V14H7v21h6v-5.2c0-2.4 1.6-4.7 4-5.2 3.2-.7 6 1.9 6 5.1V35h6z"/><path class="bst1" d="M28 4V1h7v7H1V1h7v3h6V1h8v3h6z"/><path class="bst0" d="M35.3 8l-6 6H6.8l-6-6h34.5z"/><path class="bst1" d="M10 17h4v4h-4v-4zM21 17h4v4h-4v-4z"/><path class="bst2" d="M7 14h3v21H7V14zM23.4 25.4c-1.6-1.1-2.9-1-4.1-.7 2.2.6 3.8 2.6 3.8 5V35h3v-4.4c-.1-2.1-1-4-2.7-5.2z"/><path class="bst3" d="M1 1h3v7H1V1z"/><path class="bst2" d="M.8 8l6 6h3l-6-6h-3z"/><path class="bst3" d="M10 17h3v4h-3v-4zM20 17h3v4h-3v-4z"/><path d="M29.3 36h-5.5c-.4 0-.7-.3-.7-.7v-5.1c0-2.2-1.4-4.1-3.6-4.6C16.6 25 14 27.2 14 30v5.2c0 .4-.3.7-.7.7H6.7c-.4.1-.7-.2-.7-.7V14.7c0-.4.3-.7.7-.7h22.5c.4 0 .7.3.7.7v20.5c.1.5-.2.8-.6.8zM24 34h5V15H8v19h4v-4.3c0-2.8 1.9-5.4 4.7-6 3.9-.8 7.3 2.1 7.3 5.9V34zM35.3 9H.7C.3 9 0 8.7 0 8.2V.7C0 .3.3 0 .7 0h7.5c.5 0 .8.3.8.7V3h4V.7c.5-.4.8-.7 1.3-.7h7.5c.4 0 .7.3 1.2.7V3h4V.7c0-.4.3-.7.8-.7h7.5c.4 0 .7.3.7.7v7.5c0 .5-.3.8-.7.8zM2 8h33V2h-7v2.2c0 .5-.3.8-.7.8h-5.5c-.5 0-.8-.3-.8-.8V2h-6v2.2c0 .5-.3.8-.7.8H8.8c-.5 0-.8-.3-.8-.8V2H2v6z"/><path d="M6.8 15c-.2 0-.4-.1-.5-.2l-6-6C0 8.5 0 8 .3 7.7c.3-.3.8-.3 1.1 0l6 6c.3.3.3.8 0 1.1-.3.1-.5.2-.6.2zM29.3 15c-.2 0-.4-.1-.5-.2-.3-.3-.3-.8 0-1.1l6-6c.3-.3.8-.3 1.1 0 .3.3.3.8 0 1.1l-6 6c-.3.1-.5.2-.6.2zM14.3 23H9.7c-.4 0-.7-.3-.7-.8v-4.5c0-.4.3-.7.7-.7h4.5c.4 0 .7.3.7.7v4.5c.1.5-.2.8-.6.8zM11 21h3v-3h-3v3zM25.3 23h-4.5c-.4 0-.7-.3-.7-.7v-4.5c0-.4.3-.7.7-.7h4.5c.4 0 .7.3.7.7v4.5c0 .4-.3.7-.7.7zM21 21h3v-3h-3v3z"/></svg><svg viewBox="0 0 512 512" id="payment" xmlns="http://www.w3.org/2000/svg"><path d="M172.55 391.902c-.13-.64-.32-1.27-.57-1.88-.25-.6-.56-1.18-.92-1.72a9.57 9.57 0 00-1.24-1.52 9.57 9.57 0 00-1.52-1.24 9.87 9.87 0 00-1.73-.92c-.6-.25-1.23-.45-1.87-.57a9.847 9.847 0 00-3.9 0c-.64.12-1.27.32-1.88.57-.6.25-1.18.56-1.72.92-.55.36-1.06.78-1.52 1.24-.46.46-.88.97-1.24 1.52-.37.54-.67 1.12-.92 1.72a9.69 9.69 0 00-.57 1.88c-.13.64-.2 1.3-.2 1.95 0 .65.07 1.31.2 1.95.12.64.32 1.27.57 1.87.25.61.55 1.19.92 1.73.36.55.78 1.06 1.24 1.52.46.46.97.88 1.52 1.24.54.361 1.12.671 1.72.921.61.25 1.24.45 1.88.57.64.13 1.3.2 1.95.2.65 0 1.31-.07 1.95-.2.64-.12 1.27-.32 1.87-.57.61-.25 1.19-.561 1.73-.921a9.57 9.57 0 001.52-1.24c.46-.46.88-.97 1.24-1.52.36-.54.67-1.12.92-1.73a10.098 10.098 0 00.77-3.82c0-.65-.07-1.31-.2-1.95z" fill="#ff9300"/><path d="M459.993 394.982a9.705 9.705 0 00-.121-.297c-9.204-21.537-30.79-29.497-56.336-20.772l-69.668 19.266c-4.028-12.198-14.075-22.578-28.281-27.85a11.876 11.876 0 00-.265-.094l-76.581-25.992c-6.374-8.239-26.34-29.321-63.723-29.321-26.125 0-49.236 17.922-62.458 37.457H10c-5.523 0-10 4.477-10 10v126.077c0 5.523 4.477 10 10 10h59.457c5.523 0 10-4.477 10-10v-8.634h27.883c5.523 0 10-4.477 10-10v-2.878c16.254 1.418 21.6 4.501 36.528 13.109 11.48 6.62 28.831 16.625 60.077 30.674.145.065.292.127.439.185 5.997 2.359 17.72 6.065 32.173 6.065 10.06 0 21.445-1.797 33.131-7.094l153.991-55.136c.274-.098.544-.208.808-.33 14.717-6.771 36.648-25.854 25.506-54.435zM59.457 473.455H20V367.378h39.457v106.077zm37.883-18.634H79.457v-87.443H97.34v87.443zm329.156-23.747l-153.922 55.111a12.33 12.33 0 00-.854.348c-21.437 9.852-41.814 3.954-49.8.849-30.182-13.581-46.291-22.87-58.061-29.657-16.364-9.436-24.249-13.984-46.519-15.823V361.36c9.479-15.536 27.861-31.439 47.679-31.439 33.986 0 48.387 22.105 48.953 22.997a10 10 0 005.305 4.232l79.475 26.974c12.693 4.764 19.401 15.634 16.318 26.474a19.354 19.354 0 01-9.257 11.691 19.367 19.367 0 01-14.683 1.758l-89.593-28.392c-5.268-1.669-10.886 1.247-12.554 6.512-1.669 5.265 1.247 10.885 6.512 12.554l89.749 28.441c.095.03.19.059.286.086a39.657 39.657 0 0010.857 1.523c6.638 0 13.203-1.691 19.161-5.011 9.213-5.133 15.875-13.547 18.759-23.692.23-.81.434-1.62.611-2.43l75.083-20.8c10.844-3.704 25.079-5.039 31.417 9.558 6.56 17.137-10.49 26.564-14.922 28.678zM359.06 131.543c-.13-.64-.32-1.27-.58-1.88-.25-.6-.55-1.18-.92-1.72a9.57 9.57 0 00-1.24-1.52 9.57 9.57 0 00-1.52-1.24c-.54-.36-1.12-.67-1.72-.92a9.81 9.81 0 00-1.87-.57 9.898 9.898 0 00-3.91 0c-.64.12-1.27.32-1.87.57-.61.25-1.19.56-1.73.92-.55.36-1.06.78-1.52 1.24-.46.46-.88.97-1.24 1.52-.36.54-.67 1.12-.92 1.72a9.69 9.69 0 00-.57 1.88c-.13.64-.2 1.3-.2 1.95 0 .65.07 1.31.2 1.95.12.64.32 1.27.57 1.87.25.61.56 1.19.92 1.73.36.55.78 1.06 1.24 1.52.46.46.97.88 1.52 1.24.54.36 1.12.67 1.73.92.6.25 1.23.44 1.87.57s1.3.2 1.95.2c.65 0 1.31-.07 1.96-.2.63-.13 1.26-.32 1.87-.57.6-.25 1.18-.56 1.72-.92a9.57 9.57 0 001.52-1.24c.46-.46.88-.97 1.24-1.52.37-.54.67-1.12.92-1.73.26-.6.45-1.23.58-1.87.13-.64.19-1.3.19-1.95 0-.65-.06-1.31-.19-1.95z" fill="#ff9300"/><path d="M502 33.891h-59.457c-5.523 0-10 4.477-10 10v8.634H404.66c-5.523 0-10 4.477-10 10v2.878c-16.254-1.419-21.6-4.501-36.527-13.109-11.48-6.62-28.831-16.625-60.078-30.674a8.51 8.51 0 00-.44-.185c-10.171-4.002-36.828-11.876-65.299 1.027l-40.24 14.408-33.919-33.918c-3.905-3.905-10.237-3.905-14.142 0L32.657 114.309c-3.602 3.603-4.293 9.85 0 14.143l190.287 190.287c3.045 3.046 10.175 3.967 14.143 0l101.665-101.664c2.643.228 5.386.351 8.229.351 26.126 0 49.236-17.922 62.457-37.456H502c5.523 0 10-4.477 10-10V43.891c0-5.523-4.477-10-10-10zm-350.915-9.726l22.792 22.792c-6.775 4.19-14.608 6.432-22.792 6.432-8.185 0-16.017-2.241-22.792-6.432l22.792-22.792zM76.663 144.173L53.871 121.38l22.792-22.792c4.19 6.775 6.432 14.608 6.432 22.792 0 8.184-2.241 16.017-6.432 22.793zm153.353 153.352l-22.788-22.788c13.913-8.586 31.661-8.586 45.575 0l-22.787 22.788zm37.195-37.194c-22.098-16.03-52.292-16.03-74.39 0L91.07 158.579c7.809-10.74 12.025-23.641 12.025-37.199 0-13.559-4.215-26.459-12.025-37.199l22.817-22.816c10.74 7.809 23.64 12.025 37.199 12.025 13.559 0 26.459-4.216 37.199-12.025l21.629 21.629a39.465 39.465 0 00-13.462 4.592c-7.168 3.994-12.792 9.975-16.294 17.211a56.985 56.985 0 00-29.915 15.741c-22.225 22.226-22.225 58.389.001 80.615 11.112 11.112 25.709 16.669 40.307 16.669 14.597 0 29.195-5.556 40.308-16.669 7.23-7.23 12.295-16.116 14.832-25.8l33.764 11.459c-3.801 17.608.092 36.132 10.593 50.682l-22.837 22.837zm-60.798-98.313c.088.032.176.064.265.094l19.996 6.787c-1.51 6.815-4.927 13.081-9.957 18.112-14.428 14.426-37.904 14.428-52.33 0-14.428-14.427-14.428-37.902 0-52.33a36.977 36.977 0 0112.062-8.048c1.846 15.362 12.907 29.055 29.964 35.385zm98.044 61.066a43.739 43.739 0 01-6.389-20.796 77.755 77.755 0 0017.636 9.549l-11.247 11.247zm90.202-57.101c-9.478 15.538-27.86 31.441-47.678 31.441-3.708 0-7.183-.264-10.432-.734l-.039-.006c-21.596-3.137-33.213-15.411-37.042-20.271-.204-.3-1.073-1.437-1.202-1.626a9.964 9.964 0 00-5.511-4.583l-79.508-26.985c-12.688-4.762-19.395-15.627-16.321-26.463l.006-.021.007-.025a19.355 19.355 0 019.247-11.656 19.351 19.351 0 0114.683-1.757l89.593 28.391c5.266 1.671 10.886-1.247 12.554-6.512 1.668-5.265-1.247-10.885-6.512-12.554l-71.255-22.58-.622-.622-.019-.019-36.89-36.89 31.708-11.354c.107-.039.239-.088.345-.131l.105-.042a9.59 9.59 0 00.403-.174c21.436-9.852 41.812-3.955 49.799-.849 30.183 13.581 46.293 22.87 58.063 29.657 16.364 9.437 24.249 13.984 46.518 15.823v80.542zm37.884-6.015H414.66V72.525h17.883v87.443zm59.457 0h-39.457V53.891H492v106.077z" fill="#ff9300"/></svg><svg viewBox="0 0 473.806 473.806" id="phone-call" xmlns="http://www.w3.org/2000/svg"><g fill="#fff"><path d="M374.456 293.506c-9.7-10.1-21.4-15.5-33.8-15.5-12.3 0-24.1 5.3-34.2 15.4l-31.6 31.5c-2.6-1.4-5.2-2.7-7.7-4-3.6-1.8-7-3.5-9.9-5.3-29.6-18.8-56.5-43.3-82.3-75-12.5-15.8-20.9-29.1-27-42.6 8.2-7.5 15.8-15.3 23.2-22.8 2.8-2.8 5.6-5.7 8.4-8.5 21-21 21-48.2 0-69.2l-27.3-27.3c-3.1-3.1-6.3-6.3-9.3-9.5-6-6.2-12.3-12.6-18.8-18.6-9.7-9.6-21.3-14.7-33.5-14.7s-24 5.1-34 14.7l-.2.2-34 34.3c-12.8 12.8-20.1 28.4-21.7 46.5-2.4 29.2 6.2 56.4 12.8 74.2 16.2 43.7 40.4 84.2 76.5 127.6 43.8 52.3 96.5 93.6 156.7 122.7 23 10.9 53.7 23.8 88 26 2.1.1 4.3.2 6.3.2 23.1 0 42.5-8.3 57.7-24.8.1-.2.3-.3.4-.5 5.2-6.3 11.2-12 17.5-18.1 4.3-4.1 8.7-8.4 13-12.9 9.9-10.3 15.1-22.3 15.1-34.6 0-12.4-5.3-24.3-15.4-34.3l-54.9-55.1zm35.8 105.3c-.1 0-.1.1 0 0-3.9 4.2-7.9 8-12.2 12.2-6.5 6.2-13.1 12.7-19.3 20-10.1 10.8-22 15.9-37.6 15.9-1.5 0-3.1 0-4.6-.1-29.7-1.9-57.3-13.5-78-23.4-56.6-27.4-106.3-66.3-147.6-115.6-34.1-41.1-56.9-79.1-72-119.9-9.3-24.9-12.7-44.3-11.2-62.6 1-11.7 5.5-21.4 13.8-29.7l34.1-34.1c4.9-4.6 10.1-7.1 15.2-7.1 6.3 0 11.4 3.8 14.6 7l.3.3c6.1 5.7 11.9 11.6 18 17.9 3.1 3.2 6.3 6.4 9.5 9.7l27.3 27.3c10.6 10.6 10.6 20.4 0 31-2.9 2.9-5.7 5.8-8.6 8.6-8.4 8.6-16.4 16.6-25.1 24.4-.2.2-.4.3-.5.5-8.6 8.6-7 17-5.2 22.7l.3.9c7.1 17.2 17.1 33.4 32.3 52.7l.1.1c27.6 34 56.7 60.5 88.8 80.8 4.1 2.6 8.3 4.7 12.3 6.7 3.6 1.8 7 3.5 9.9 5.3.4.2.8.5 1.2.7 3.4 1.7 6.6 2.5 9.9 2.5 8.3 0 13.5-5.2 15.2-6.9l34.2-34.2c3.4-3.4 8.8-7.5 15.1-7.5 6.2 0 11.3 3.9 14.4 7.3l.2.2 55.1 55.1c10.3 10.2 10.3 20.7.1 31.3zM256.056 112.706c26.2 4.4 50 16.8 69 35.8s31.3 42.8 35.8 69c1.1 6.6 6.8 11.2 13.3 11.2.8 0 1.5-.1 2.3-.2 7.4-1.2 12.3-8.2 11.1-15.6-5.4-31.7-20.4-60.6-43.3-83.5s-51.8-37.9-83.5-43.3c-7.4-1.2-14.3 3.7-15.6 11s3.5 14.4 10.9 15.6zM473.256 209.006c-8.9-52.2-33.5-99.7-71.3-137.5s-85.3-62.4-137.5-71.3c-7.3-1.3-14.2 3.7-15.5 11-1.2 7.4 3.7 14.3 11.1 15.6 46.6 7.9 89.1 30 122.9 63.7 33.8 33.8 55.8 76.3 63.7 122.9 1.1 6.6 6.8 11.2 13.3 11.2.8 0 1.5-.1 2.3-.2 7.3-1.1 12.3-8.1 11-15.4z"/></g></svg><svg viewBox="0 0 512 512" id="shield" xmlns="http://www.w3.org/2000/svg"><path d="M256 40.01a9.969 9.969 0 00-9.99 9.99 9.961 9.961 0 008.99 9.938A9.97 9.97 0 00265.99 50c0-5.538-4.46-9.99-9.99-9.99z" fill="#ff9300"/><path d="M456 60c-27.57 0-50-22.43-50-50 0-5.522-4.478-10-10-10H116c-5.522 0-10 4.478-10 10 0 27.57-22.43 50-50 50-5.522 0-10 4.478-10 10v163.19c0 127.177 82.895 241.135 207.128 278.389a9.997 9.997 0 005.745-.001C380.415 475.119 466 363.149 466 233.19V70c0-5.522-4.478-10-10-10zm-10 173.19c0 119.448-76.221 222.892-190 258.353C143.128 456.365 66 351.984 66 233.19V79.288C96.611 74.89 120.89 50.611 125.288 20h261.424C391.11 50.611 415.389 74.89 446 79.288V233.19z" fill="#ff9300"/><path d="M420.012 92.49c-20.854-9.133-37.369-25.648-46.502-46.502A10 10 0 00364.35 40h-68.37c-5.522 0-10 4.478-10 10s4.478 10 10 10h62.047A109.933 109.933 0 00406 107.973V233.19c0 97.863-58.749 182.303-150 216.104-91.251-33.802-150-118.241-150-216.104V107.973A109.938 109.938 0 00153.973 60h62.047c5.522 0 10-4.478 10-10s-4.478-10-10-10h-68.37a10.002 10.002 0 00-9.16 5.988c-9.133 20.854-25.648 37.369-46.502 46.502A10.003 10.003 0 0086 101.65v131.54c0 107.213 66.311 200.653 166.664 236.166a9.993 9.993 0 006.672 0C359.605 433.873 426 340.49 426 233.19V101.65c0-3.972-2.351-7.566-5.988-9.16z" fill="#ff9300"/><path d="M256 146c-49.626 0-90 40.374-90 90s40.374 90 90 90 90-40.374 90-90-40.374-90-90-90zm0 160c-38.598 0-70-31.402-70-70s31.402-70 70-70 70 31.402 70 70-31.402 70-70 70z" fill="#ff9300"/><path d="M303.071 208.928c-3.906-3.904-10.236-3.904-14.143 0L246 251.857l-12.929-12.928c-3.906-3.904-10.236-3.904-14.143 0-3.905 3.905-3.905 10.237 0 14.143l20 20C240.882 275.023 243.44 276 246 276s5.118-.977 7.071-2.929l50-50c3.905-3.905 3.905-10.237 0-14.143z" fill="#ff9300"/></svg><svg viewBox="0 0 512 512" id="smartphone" xmlns="http://www.w3.org/2000/svg"><path d="M237.864 32h-50c-5.523 0-10 4.478-10 10s4.477 10 10 10h50c5.523 0 10-4.478 10-10s-4.477-10-10-10zM157.19 34.93c-1.86-1.861-4.44-2.93-7.07-2.93s-5.21 1.07-7.07 2.93-2.93 4.44-2.93 7.07 1.07 5.21 2.93 7.069c1.86 1.861 4.44 2.931 7.07 2.931s5.21-1.07 7.07-2.931c1.86-1.859 2.93-4.439 2.93-7.069s-1.07-5.209-2.93-7.07zM361.992 399c-5.523 0-10 4.478-10 10v53c0 16.542-13.458 30-30 30h-256c-16.542 0-30-13.458-30-30V291c0-5.522-4.477-10-10-10s-10 4.478-10 10v171c0 27.57 22.43 50 50 50h256c27.57 0 50-22.43 50-50v-53c0-5.522-4.477-10-10-10z" fill="#ff9300"/><path d="M321.992 0h-256c-27.57 0-50 22.43-50 50v164.333c0 5.522 4.477 10 10 10s10-4.478 10-10V50c0-16.542 13.458-30 30-30h256c16.542 0 30 13.458 30 30v52.333c0 5.522 4.477 10 10 10s10-4.478 10-10V50c0-27.57-22.43-50-50-50zM25.992 246.127c-5.523 0-10 4.478-10 10v.311c0 5.522 4.477 10 10 10s10-4.478 10-10v-.311c0-5.522-4.477-10-10-10zM194.042 455.986h-.101c-5.523 0-10 4.478-10 10s4.477 10 10 10h.101c5.523 0 10-4.478 10-10s-4.477-10-10-10z" fill="#ff9300"/><path d="M322.992 112.333c5.523 0 10-4.478 10-10V74c0-5.522-4.477-10-10-10h-258c-5.523 0-10 4.478-10 10v356c0 5.522 4.477 10 10 10h258c5.523 0 10-4.478 10-10v-21c0-5.522-4.477-10-10-10s-10 4.478-10 10v11h-238V84h238v18.333c0 5.522 4.477 10 10 10z" fill="#ff9300"/><path d="M402.78 260.046a10 10 0 00-15.227-7.531 10.165 10.165 0 01-5.365 1.524c-5.631 0-10.213-4.581-10.213-10.212 0-1.902.527-3.758 1.525-5.366a9.998 9.998 0 00-7.532-15.225 41.57 41.57 0 00-3.993-.196c-22.607 0-41 18.393-41 40.999 0 22.607 18.393 41 41 41 22.608 0 41-18.393 41.001-41a41.57 41.57 0 00-.196-3.993zm-40.805 24.993c-11.58 0-21-9.421-21-21 0-7.981 4.474-14.935 11.048-18.488.865 15.29 13.151 27.575 28.441 28.439-3.552 6.573-10.508 11.049-18.489 11.049z" fill="#ff9300"/><path d="M361.992 190.022c-40.804 0-74 33.196-74 74s33.196 74 74 74 74-33.196 74-74-33.196-74-74-74zm0 128c-29.776 0-54-24.225-54-54s24.224-54 54-54 54 24.225 54 54-24.224 54-54 54zM460.323 207.151c-3.953-3.854-10.303-3.755-14.16.198-3.856 3.955-3.776 10.287.179 14.142a9.965 9.965 0 006.98 2.84 9.972 9.972 0 007.161-3.019l.038-.039c3.856-3.955 3.757-10.267-.198-14.122z" fill="#ff9300"/><path d="M456.008 172h-35.049l-10.416-26.642A9.998 9.998 0 00401.23 139h-78.475a10 10 0 00-9.313 6.358L303.026 172h-35.049c-22.056 0-40 17.944-40 40v121c0 22.056 17.944 40 40 40h188.031c22.056 0 40-17.944 40-40V212c0-22.056-17.944-40-40-40zm20 161c0 11.028-8.972 20-20 20H267.977c-11.028 0-20-8.972-20-20V212c0-11.028 8.972-20 20-20h41.877a9.999 9.999 0 009.313-6.358L329.583 159h64.819l10.417 26.642a9.998 9.998 0 009.313 6.358h41.876c11.028 0 20 8.972 20 20v121z" fill="#ff9300"/></svg><svg viewBox="0 0 512.021 512.021" id="success" xmlns="http://www.w3.org/2000/svg"><path d="M496.999 98.784c-17.245-13.799-42.421-11.034-56.216 6.241l-34.945 43.682c-5.228-24.921-27.374-43.694-53.826-43.694s-48.597 18.772-53.826 43.693l-26.957-33.694 40.01-50.01C325.05 47.752 322.278 22.591 305 8.784c-17.245-13.799-42.421-11.034-56.216 6.241l-34.945 43.682c-5.228-24.921-27.374-43.694-53.826-43.694s-48.597 18.772-53.826 43.692L71.243 15.029C57.459-2.22 32.272-5.03 15.028 8.78-2.245 22.583-5.037 47.738 8.782 65l81.229 101.53v235.482h-62c-5.523 0-10 4.477-10 10v90c0 5.523 4.477 10 10 10h93c5.523 0 10-4.477 10-10s-4.477-10-10-10h-83v-70h244v70h-71c-5.523 0-10 4.477-10 10s4.477 10 10 10h231c5.523 0 10-4.477 10-10s-4.477-10-10-10h-20V256.53l81.227-101.528c13.811-17.25 11.039-42.411-6.239-56.218zm-179.988 61.228c0-19.299 15.701-35 35-35s35 15.701 35 35c0 19.324-15.657 35-35 35-19.047 0-35-15.421-35-35zm-192-90c0-19.299 15.701-35 35-35s35 15.701 35 35c0 19.324-15.657 35-35 35-19.047 0-35-15.42-35-35zm-17.192 86.763L24.398 52.503c-6.891-8.608-5.541-21.181 3.125-28.105 8.613-6.899 21.208-5.504 28.1 3.122l60.256 75.321c10.967 14.588 27.43 22.172 44.132 22.172 16.794 0 33.204-7.624 44.178-22.235l60.216-75.265c6.887-8.624 19.469-10.018 28.104-3.107 8.519 6.806 10.108 19.364 3.114 28.101l-83.42 104.27a10.14 10.14 0 00-2.191 6.257v238.98h-40v-122c0-5.523-4.477-10-10-10s-10 4.477-10 10v122h-40v-238.99a10.005 10.005 0 00-2.193-6.249zm122.192 245.237V191.538l52 64.993v145.482h-52zm257.611-259.506l-83.28 104.095c-1.423 1.706-2.331 4.026-2.331 6.421v238.99h-40v-122c0-5.523-4.477-10-10-10s-10 4.477-10 10v122h-40v-238.99c0-2.271-.773-4.474-2.192-6.248l-67.006-83.747 25.607-32.008 49.458 61.82c10.988 14.615 27.464 22.172 44.132 22.172 16.794 0 33.204-7.624 44.178-22.235l60.216-75.265c6.887-8.624 19.47-10.017 28.104-3.107 8.519 6.807 10.109 19.365 3.114 28.102z" fill="#ff9300"/><circle cx="166.011" cy="502.012" r="10" fill="#ff9300"/></svg></svg>