<?xml version="1.0" encoding="iso-8859-1"?><svg viewBox="0 0 512 512" xmlns="http://www.w3.org/2000/svg" xmlns:xlink="http://www.w3.org/1999/xlink"><style>:root>svg{display:none}:root>svg:target{display:block}</style><svg viewBox="0 0 496.941 496.941" id="contract" xmlns="http://www.w3.org/2000/svg"><g fill="#ff9300"><path d="M475.299 106.918l-12.047-3.765c-3.012-.753-6.024-1.506-9.788-1.506-13.553 0-25.6 9.035-30.118 21.835l-6.776 20.329V128c0-2.259-1.506-4.518-3.012-6.024L290.076 2.259C288.57.753 286.311 0 284.805 0H43.111c-4.518 0-7.529 3.012-7.529 7.529V30.87H7.723c-4.518 0-7.529 3.012-7.529 7.529v451.012c0 4.518 3.012 7.529 7.529 7.529h365.929c4.518 0 7.529-3.012 7.529-7.529V466.07h27.859c4.518 0 7.529-3.012 7.529-7.529V356.894l21.082-28.612.753-2.259 56.471-179.953c6.024-16.564-3.011-33.882-19.576-39.152zM292.334 25.6l98.635 94.871h-98.635V25.6zm73.789 456.282H15.252V45.929h20.329v412.612c0 4.518 3.012 7.529 7.529 7.529h323.012v15.812zm36.141-30.87H50.64V15.059h226.635V128c0 4.518 3.012 7.529 7.529 7.529h117.459V192l-35.388 111.435v2.259l1.506 95.624c0 3.012 2.259 6.024 5.271 6.776 3.012.753 6.776 0 8.282-3.012l20.329-27.106v73.036zm-19.577-73.036l-1.506-62.494 37.647 12.047-36.141 50.447zm98.636-236.423l-54.212 172.424-43.671-14.306L437.652 128c3.012-8.282 12.047-13.553 20.329-10.541l12.047 3.765c9.036 2.258 14.306 12.047 11.295 20.329z"/><path d="M101.84 135.529h108.424c4.518 0 7.529-3.012 7.529-7.529V51.2c0-4.518-3.012-7.529-7.529-7.529H101.84c-4.518 0-7.529 3.012-7.529 7.529V128c0 3.765 3.765 7.529 7.529 7.529zm7.53-76.8h93.365v61.741H109.37V58.729zM86.782 206.306h228.894c4.518 0 7.529-3.012 7.529-7.529 0-4.518-3.012-7.529-7.529-7.529H86.782c-4.518 0-7.529 3.012-7.529 7.529-.001 4.517 3.011 7.529 7.529 7.529zM86.782 261.271h228.894c4.518 0 7.529-3.012 7.529-7.529s-3.012-7.529-7.529-7.529H86.782c-4.518 0-7.529 3.012-7.529 7.529s3.011 7.529 7.529 7.529zM86.782 316.235h228.894c4.518 0 7.529-3.012 7.529-7.529s-3.012-7.529-7.529-7.529H86.782c-4.518 0-7.529 3.012-7.529 7.529s3.011 7.529 7.529 7.529zM322.452 363.671c0-4.518-3.012-7.529-7.529-7.529H86.782c-4.518 0-7.529 3.012-7.529 7.529s3.012 7.529 7.529 7.529h228.894c3.764 0 6.776-3.765 6.776-7.529zM347.299 411.106H233.605c-4.518 0-7.529 3.012-7.529 7.529s3.012 7.529 7.529 7.529h112.941c4.518 0 7.529-3.012 7.529-7.529s-3.011-7.529-6.776-7.529z"/></g></svg><svg version="1.1" id="favicon" x="0" y="0" viewBox="0 0 36 36" xml:space="preserve" xmlns="http://www.w3.org/2000/svg"><style>.bst0{fill:#f3f3f1}.bst1{fill:#eca442}.bst2{fill:#d5dbe1}.bst3{fill:#976929}</style><path class="bst0" d="M29 35V14H7v21h6v-5.2c0-2.4 1.6-4.7 4-5.2 3.2-.7 6 1.9 6 5.1V35h6z"/><path class="bst1" d="M28 4V1h7v7H1V1h7v3h6V1h8v3h6z"/><path class="bst0" d="M35.3 8l-6 6H6.8l-6-6h34.5z"/><path class="bst1" d="M10 17h4v4h-4v-4zM21 17h4v4h-4v-4z"/><path class="bst2" d="M7 14h3v21H7V14zM23.4 25.4c-1.6-1.1-2.9-1-4.1-.7 2.2.6 3.8 2.6 3.8 5V35h3v-4.4c-.1-2.1-1-4-2.7-5.2z"/><path class="bst3" d="M1 1h3v7H1V1z"/><path class="bst2" d="M.8 8l6 6h3l-6-6h-3z"/><path class="bst3" d="M10 17h3v4h-3v-4zM20 17h3v4h-3v-4z"/><path d="M29.3 36h-5.5c-.4 0-.7-.3-.7-.7v-5.1c0-2.2-1.4-4.1-3.6-4.6C16.6 25 14 27.2 14 30v5.2c0 .4-.3.7-.7.7H6.7c-.4.1-.7-.2-.7-.7V14.7c0-.4.3-.7.7-.7h22.5c.4 0 .7.3.7.7v20.5c.1.5-.2.8-.6.8zM24 34h5V15H8v19h4v-4.3c0-2.8 1.9-5.4 4.7-6 3.9-.8 7.3 2.1 7.3 5.9V34zM35.3 9H.7C.3 9 0 8.7 0 8.2V.7C0 .3.3 0 .7 0h7.5c.5 0 .8.3.8.7V3h4V.7c.5-.4.8-.7 1.3-.7h7.5c.4 0 .7.3 1.2.7V3h4V.7c0-.4.3-.7.8-.7h7.5c.4 0 .7.3.7.7v7.5c0 .5-.3.8-.7.8zM2 8h33V2h-7v2.2c0 .5-.3.8-.7.8h-5.5c-.5 0-.8-.3-.8-.8V2h-6v2.2c0 .5-.3.8-.7.8H8.8c-.5 0-.8-.3-.8-.8V2H2v6z"/><path d="M6.8 15c-.2 0-.4-.1-.5-.2l-6-6C0 8.5 0 8 .3 7.7c.3-.3.8-.3 1.1 0l6 6c.3.3.3.8 0 1.1-.3.1-.5.2-.6.2zM29.3 15c-.2 0-.4-.1-.5-.2-.3-.3-.3-.8 0-1.1l6-6c.3-.3.8-.3 1.1 0 .3.3.3.8 0 1.1l-6 6c-.3.1-.5.2-.6.2zM14.3 23H9.7c-.4 0-.7-.3-.7-.8v-4.5c0-.4.3-.7.7-.7h4.5c.4 0 .7.3.7.7v4.5c.1.5-.2.8-.6.8zM11 21h3v-3h-3v3zM25.3 23h-4.5c-.4 0-.7-.3-.7-.7v-4.5c0-.4.3-.7.7-.7h4.5c.4 0 .7.3.7.7v4.5c0 .4-.3.7-.7.7zM21 21h3v-3h-3v3z"/></svg><svg viewBox="0 0 473.806 473.806" id="phone-call" xmlns="http://www.w3.org/2000/svg"><g fill="#fff"><path d="M374.456 293.506c-9.7-10.1-21.4-15.5-33.8-15.5-12.3 0-24.1 5.3-34.2 15.4l-31.6 31.5c-2.6-1.4-5.2-2.7-7.7-4-3.6-1.8-7-3.5-9.9-5.3-29.6-18.8-56.5-43.3-82.3-75-12.5-15.8-20.9-29.1-27-42.6 8.2-7.5 15.8-15.3 23.2-22.8 2.8-2.8 5.6-5.7 8.4-8.5 21-21 21-48.2 0-69.2l-27.3-27.3c-3.1-3.1-6.3-6.3-9.3-9.5-6-6.2-12.3-12.6-18.8-18.6-9.7-9.6-21.3-14.7-33.5-14.7s-24 5.1-34 14.7l-.2.2-34 34.3c-12.8 12.8-20.1 28.4-21.7 46.5-2.4 29.2 6.2 56.4 12.8 74.2 16.2 43.7 40.4 84.2 76.5 127.6 43.8 52.3 96.5 93.6 156.7 122.7 23 10.9 53.7 23.8 88 26 2.1.1 4.3.2 6.3.2 23.1 0 42.5-8.3 57.7-24.8.1-.2.3-.3.4-.5 5.2-6.3 11.2-12 17.5-18.1 4.3-4.1 8.7-8.4 13-12.9 9.9-10.3 15.1-22.3 15.1-34.6 0-12.4-5.3-24.3-15.4-34.3l-54.9-55.1zm35.8 105.3c-.1 0-.1.1 0 0-3.9 4.2-7.9 8-12.2 12.2-6.5 6.2-13.1 12.7-19.3 20-10.1 10.8-22 15.9-37.6 15.9-1.5 0-3.1 0-4.6-.1-29.7-1.9-57.3-13.5-78-23.4-56.6-27.4-106.3-66.3-147.6-115.6-34.1-41.1-56.9-79.1-72-119.9-9.3-24.9-12.7-44.3-11.2-62.6 1-11.7 5.5-21.4 13.8-29.7l34.1-34.1c4.9-4.6 10.1-7.1 15.2-7.1 6.3 0 11.4 3.8 14.6 7l.3.3c6.1 5.7 11.9 11.6 18 17.9 3.1 3.2 6.3 6.4 9.5 9.7l27.3 27.3c10.6 10.6 10.6 20.4 0 31-2.9 2.9-5.7 5.8-8.6 8.6-8.4 8.6-16.4 16.6-25.1 24.4-.2.2-.4.3-.5.5-8.6 8.6-7 17-5.2 22.7l.3.9c7.1 17.2 17.1 33.4 32.3 52.7l.1.1c27.6 34 56.7 60.5 88.8 80.8 4.1 2.6 8.3 4.7 12.3 6.7 3.6 1.8 7 3.5 9.9 5.3.4.2.8.5 1.2.7 3.4 1.7 6.6 2.5 9.9 2.5 8.3 0 13.5-5.2 15.2-6.9l34.2-34.2c3.4-3.4 8.8-7.5 15.1-7.5 6.2 0 11.3 3.9 14.4 7.3l.2.2 55.1 55.1c10.3 10.2 10.3 20.7.1 31.3zM256.056 112.706c26.2 4.4 50 16.8 69 35.8s31.3 42.8 35.8 69c1.1 6.6 6.8 11.2 13.3 11.2.8 0 1.5-.1 2.3-.2 7.4-1.2 12.3-8.2 11.1-15.6-5.4-31.7-20.4-60.6-43.3-83.5s-51.8-37.9-83.5-43.3c-7.4-1.2-14.3 3.7-15.6 11s3.5 14.4 10.9 15.6zM473.256 209.006c-8.9-52.2-33.5-99.7-71.3-137.5s-85.3-62.4-137.5-71.3c-7.3-1.3-14.2 3.7-15.5 11-1.2 7.4 3.7 14.3 11.1 15.6 46.6 7.9 89.1 30 122.9 63.7 33.8 33.8 55.8 76.3 63.7 122.9 1.1 6.6 6.8 11.2 13.3 11.2.8 0 1.5-.1 2.3-.2 7.3-1.1 12.3-8.1 11-15.4z"/></g></svg><svg viewBox="0 0 512.021 512.021" id="success" xmlns="http://www.w3.org/2000/svg"><path d="M496.999 98.784c-17.245-13.799-42.421-11.034-56.216 6.241l-34.945 43.682c-5.228-24.921-27.374-43.694-53.826-43.694s-48.597 18.772-53.826 43.693l-26.957-33.694 40.01-50.01C325.05 47.752 322.278 22.591 305 8.784c-17.245-13.799-42.421-11.034-56.216 6.241l-34.945 43.682c-5.228-24.921-27.374-43.694-53.826-43.694s-48.597 18.772-53.826 43.692L71.243 15.029C57.459-2.22 32.272-5.03 15.028 8.78-2.245 22.583-5.037 47.738 8.782 65l81.229 101.53v235.482h-62c-5.523 0-10 4.477-10 10v90c0 5.523 4.477 10 10 10h93c5.523 0 10-4.477 10-10s-4.477-10-10-10h-83v-70h244v70h-71c-5.523 0-10 4.477-10 10s4.477 10 10 10h231c5.523 0 10-4.477 10-10s-4.477-10-10-10h-20V256.53l81.227-101.528c13.811-17.25 11.039-42.411-6.239-56.218zm-179.988 61.228c0-19.299 15.701-35 35-35s35 15.701 35 35c0 19.324-15.657 35-35 35-19.047 0-35-15.421-35-35zm-192-90c0-19.299 15.701-35 35-35s35 15.701 35 35c0 19.324-15.657 35-35 35-19.047 0-35-15.42-35-35zm-17.192 86.763L24.398 52.503c-6.891-8.608-5.541-21.181 3.125-28.105 8.613-6.899 21.208-5.504 28.1 3.122l60.256 75.321c10.967 14.588 27.43 22.172 44.132 22.172 16.794 0 33.204-7.624 44.178-22.235l60.216-75.265c6.887-8.624 19.469-10.018 28.104-3.107 8.519 6.806 10.108 19.364 3.114 28.101l-83.42 104.27a10.14 10.14 0 00-2.191 6.257v238.98h-40v-122c0-5.523-4.477-10-10-10s-10 4.477-10 10v122h-40v-238.99a10.005 10.005 0 00-2.193-6.249zm122.192 245.237V191.538l52 64.993v145.482h-52zm257.611-259.506l-83.28 104.095c-1.423 1.706-2.331 4.026-2.331 6.421v238.99h-40v-122c0-5.523-4.477-10-10-10s-10 4.477-10 10v122h-40v-238.99c0-2.271-.773-4.474-2.192-6.248l-67.006-83.747 25.607-32.008 49.458 61.82c10.988 14.615 27.464 22.172 44.132 22.172 16.794 0 33.204-7.624 44.178-22.235l60.216-75.265c6.887-8.624 19.47-10.017 28.104-3.107 8.519 6.807 10.109 19.365 3.114 28.102z" fill="#ff9300"/><circle cx="166.011" cy="502.012" r="10" fill="#ff9300"/></svg></svg>