<svg id="Capa_1" enable-background="new 0 0 512.021 512.021" height="512" viewBox="0 0 512.021 512.021" width="512"
     xmlns="http://www.w3.org/2000/svg">
    <path d="m496.999 98.784c-17.245-13.799-42.421-11.034-56.216 6.241l-34.945 43.682c-5.228-24.921-27.374-43.694-53.826-43.694s-48.597 18.772-53.826 43.693l-26.957-33.694 40.01-50.01c13.811-17.25 11.039-42.411-6.239-56.218-17.245-13.799-42.421-11.034-56.216 6.241l-34.945 43.682c-5.228-24.921-27.374-43.694-53.826-43.694s-48.597 18.772-53.826 43.692l-34.944-43.676c-13.784-17.249-38.971-20.059-56.215-6.249-17.273 13.803-20.065 38.958-6.246 56.22l81.229 101.53v235.482h-62c-5.523 0-10 4.477-10 10v90c0 5.523 4.477 10 10 10h93c5.523 0 10-4.477 10-10s-4.477-10-10-10h-83v-70h244v70h-71c-5.523 0-10 4.477-10 10s4.477 10 10 10h231c5.523 0 10-4.477 10-10s-4.477-10-10-10h-20v-235.482l81.227-101.528c13.811-17.25 11.039-42.411-6.239-56.218zm-179.988 61.228c0-19.299 15.701-35 35-35s35 15.701 35 35c0 19.324-15.657 35-35 35-19.047 0-35-15.421-35-35zm-192-90c0-19.299 15.701-35 35-35s35 15.701 35 35c0 19.324-15.657 35-35 35-19.047 0-35-15.42-35-35zm-17.192 86.763-83.421-104.272c-6.891-8.608-5.541-21.181 3.125-28.105 8.613-6.899 21.208-5.504 28.1 3.122l60.256 75.321c10.967 14.588 27.43 22.172 44.132 22.172 16.794 0 33.204-7.624 44.178-22.235l60.216-75.265c6.887-8.624 19.469-10.018 28.104-3.107 8.519 6.806 10.108 19.364 3.114 28.101l-83.42 104.27c-1.359 1.698-2.191 3.946-2.191 6.257v238.98h-40v-122c0-5.523-4.477-10-10-10s-10 4.477-10 10v122h-40v-238.99c-.001-2.273-.774-4.476-2.193-6.249zm122.192 245.237v-210.474l52 64.993v145.482h-52zm257.611-259.506-83.28 104.095c-1.423 1.706-2.331 4.026-2.331 6.421v238.99h-40v-122c0-5.523-4.477-10-10-10s-10 4.477-10 10v122h-40v-238.99c0-2.271-.773-4.474-2.192-6.248l-67.006-83.747 25.607-32.008 49.458 61.82c10.988 14.615 27.464 22.172 44.132 22.172 16.794 0 33.204-7.624 44.178-22.235l60.216-75.265c6.887-8.624 19.47-10.017 28.104-3.107 8.519 6.807 10.109 19.365 3.114 28.102z" fill="#ff9300"/>
    <circle cx="166.011" cy="502.012" r="10" fill="#ff9300"/>
</svg>